<?xml version="1.0" standalone="no"?>
<!DOCTYPE svg PUBLIC "-//W3C//DTD SVG 20010904//EN"
 "http://www.w3.org/TR/2001/REC-SVG-20010904/DTD/svg10.dtd">
<svg version="1.0" xmlns="http://www.w3.org/2000/svg"
 width="256.000000pt" height="256.000000pt" viewBox="0 0 256.000000 256.000000"
 preserveAspectRatio="xMidYMid meet">
<metadata>
Created by potrace 1.15, written by Peter Selinger 2001-2017
</metadata>
<g transform="translate(0.000000,256.000000) scale(0.100000,-0.100000)"
fill="#000000" stroke="none">
<path d="M312 2133 c-152 -178 -257 -398 -297 -627 -20 -115 -20 -337 0 -452
19 -105 71 -267 116 -356 41 -83 127 -209 187 -278 l49 -54 82 73 c44 41 81
75 81 77 0 2 -32 43 -71 91 -88 110 -170 272 -206 408 -24 89 -27 118 -27 265
0 147 3 176 27 265 36 137 118 298 208 409 l71 90 -78 73 c-44 40 -82 72 -86
73 -3 0 -28 -26 -56 -57z"/>
<path d="M2105 2116 l-79 -74 51 -58 c112 -130 194 -288 236 -454 31 -122 31
-378 0 -500 -42 -165 -124 -324 -234 -451 -27 -31 -49 -59 -49 -61 0 -3 37
-38 82 -79 l81 -73 44 49 c157 175 268 403 308 632 20 115 20 351 0 466 -30
167 -104 354 -196 489 -45 66 -147 188 -157 188 -4 -1 -43 -34 -87 -74z"/>
<path d="M701 1760 c-66 -79 -135 -223 -155 -322 -20 -98 -20 -217 -1 -316 20
-99 99 -260 162 -329 l48 -53 82 76 82 75 -43 53 c-56 70 -93 145 -111 231
-18 88 -18 122 0 210 18 86 55 161 110 230 l43 53 -41 38 c-23 22 -61 56 -83
77 l-42 39 -51 -62z"/>
<path d="M1723 1744 l-82 -75 43 -53 c56 -70 93 -145 111 -231 18 -88 18 -122
0 -210 -18 -86 -55 -161 -111 -231 l-43 -53 82 -75 82 -76 48 53 c63 69 142
230 162 329 34 173 13 335 -65 493 -28 57 -70 123 -97 152 l-48 53 -82 -76z"/>
<path d="M1216 1490 c-44 -14 -92 -51 -119 -93 -103 -158 35 -364 222 -332 83
14 162 93 176 176 27 160 -124 295 -279 249z"/>
</g>
</svg>
