<?xml version="1.0" standalone="no"?>
<!DOCTYPE svg PUBLIC "-//W3C//DTD SVG 20010904//EN"
 "http://www.w3.org/TR/2001/REC-SVG-20010904/DTD/svg10.dtd">
<svg version="1.0" xmlns="http://www.w3.org/2000/svg"
 width="626.000000pt" height="626.000000pt" viewBox="0 0 626.000000 626.000000"
 preserveAspectRatio="xMidYMid meet">
<metadata>
Created by potrace 1.15, written by Peter Selinger 2001-2017
</metadata>
<g transform="translate(0.000000,626.000000) scale(0.100000,-0.100000)"
fill="#000000" stroke="none">
<path d="M2757 5439 c-177 -18 -416 -108 -549 -207 -165 -123 -291 -269 -372
-430 -59 -117 -75 -168 -121 -379 -5 -23 -5 -23 123 -23 l129 0 12 67 c40 218
201 449 403 580 157 101 315 147 508 148 251 0 477 -94 658 -275 121 -122 194
-248 245 -428 l22 -76 180 -1 c153 -1 192 -4 260 -23 221 -62 433 -217 550
-405 27 -43 33 -47 60 -42 77 13 305 17 371 6 95 -17 206 -56 289 -103 85 -48
118 -73 201 -151 74 -69 106 -111 167 -222 287 -521 22 -1160 -558 -1342 l-90
-28 -1140 -5 -1140 -5 -6 -105 c-3 -58 -9 -113 -13 -122 -8 -17 49 -18 1110
-18 1227 0 1215 0 1396 60 414 139 715 494 793 937 36 206 7 436 -81 643 -62
148 -123 239 -242 362 -228 235 -519 359 -846 359 l-120 0 -80 85 c-100 108
-201 183 -336 250 -150 75 -338 124 -478 124 l-64 0 -16 43 c-51 131 -142 267
-257 383 -251 255 -605 380 -968 343z"/>
<path d="M25 4176 l-25 -25 0 -1640 0 -1640 24 -28 24 -28 1269 -3 c866 -2
1280 0 1304 8 72 20 69 -20 65 876 -2 440 -3 808 -3 819 1 11 1 194 1 408 0
213 0 399 0 415 0 15 0 203 0 419 l1 391 -24 26 -24 26 -1294 0 -1294 0 -24
-24z m2335 -401 l0 -215 -1022 -2 c-563 -2 -1033 -2 -1045 0 l-23 3 0 215 0
214 1045 0 1045 0 0 -215z m0 -840 l0 -215 -1045 0 -1045 0 0 215 0 215 1045
0 1045 0 0 -215z m0 -820 l0 -215 -1045 0 -1045 0 0 218 0 217 1045 -3 1045
-2 0 -215z m0 -850 l0 -215 -1045 0 -1045 0 0 215 0 215 1045 0 1045 0 0 -215z"/>
<path d="M2029 3852 c-60 -53 -36 -155 41 -175 75 -19 130 24 130 102 0 43 -4
53 -31 75 -43 36 -98 36 -140 -2z"/>
<path d="M2044 3051 c-58 -36 -65 -110 -16 -163 21 -23 34 -28 72 -28 61 0
101 38 102 97 0 50 -15 79 -52 98 -39 20 -69 19 -106 -4z"/>
<path d="M2037 2210 c-71 -56 -46 -170 40 -186 71 -13 126 34 125 109 -1 34
-7 47 -32 70 -38 34 -95 37 -133 7z"/>
<path d="M2054 1366 c-18 -8 -37 -28 -47 -49 -50 -105 80 -201 164 -121 24 23
29 36 29 74 0 50 -22 84 -67 101 -31 12 -41 11 -79 -5z"/>
</g>
</svg>
